<svg width="20" height="18" viewBox="0 0 20 18" fill="none" xmlns="http://www.w3.org/2000/svg">
<path d="M5.00006 13C5.00006 13.5523 5.44778 14 6.00006 14C6.55235 14 7.00006 13.5523 7.00006 13V11C7.00006 10.4477 6.55235 10 6.00006 10C5.44778 10 5.00006 10.4477 5.00006 11V13Z" fill="#ff0000"/>
<path d="M10.0001 14C9.44778 14 9.00006 13.5523 9.00006 13V5C9.00006 4.44771 9.44778 4 10.0001 4C10.5523 4 11.0001 4.44771 11.0001 5V13C11.0001 13.5523 10.5523 14 10.0001 14Z" fill="#117CFE"/>
<path d="M13.0001 13C13.0001 13.5523 13.4478 14 14.0001 14C14.5523 14 15.0001 13.5523 15.0001 13V7C15.0001 6.44772 14.5523 6 14.0001 6C13.4478 6 13.0001 6.44772 13.0001 7V13Z" fill="#117CFE"/>
<path fill-rule="evenodd" clip-rule="evenodd" d="M6.10352e-05 2C6.10352e-05 0.89543 0.895492 0 2.00006 0H18.0001C19.1046 0 20.0001 0.895431 20.0001 2V16C20.0001 17.1046 19.1046 18 18.0001 18H2.00006C0.895492 18 6.10352e-05 17.1046 6.10352e-05 16V2ZM2.00006 2H18.0001V16H2.00006V2Z" fill="#117CFE"/>
</svg>
